<?xml version="1.0" encoding="UTF-8"?>
<svg xmlns="http://www.w3.org/2000/svg" width="900" height="560" style="background:#fff;font-family:sans-serif;">
  <!-- Titulo -->
  <text x="450" y="22" text-anchor="middle" font-size="14" font-weight="bold" fill="#222">
    V(Vtop) - Comparacao Pre-Layout vs Pos-Layout | Vin=1.25V, Vref=1.8V
  </text>

  <!-- Eixos -->
  <rect x="90" y="40" width="780" height="450" fill="#fafafa" stroke="#ccc"/>

  <!-- Grid -->
  <line x1="90" y1="449" x2="870" y2="449" stroke="#ddd" stroke-width="1"/>
<text x="82" y="453" text-anchor="end" font-size="10" fill="#555" font-family="monospace">-1200</text>
<line x1="90" y1="367" x2="870" y2="367" stroke="#ddd" stroke-width="1"/>
<text x="82" y="371" text-anchor="end" font-size="10" fill="#555" font-family="monospace">-800</text>
<line x1="90" y1="285" x2="870" y2="285" stroke="#ddd" stroke-width="1"/>
<text x="82" y="289" text-anchor="end" font-size="10" fill="#555" font-family="monospace">-400</text>
<line x1="90" y1="203" x2="870" y2="203" stroke="#ddd" stroke-width="1"/>
<text x="82" y="207" text-anchor="end" font-size="10" fill="#555" font-family="monospace">0</text>
<line x1="90" y1="162" x2="870" y2="162" stroke="#ddd" stroke-width="1"/>
<text x="82" y="166" text-anchor="end" font-size="10" fill="#555" font-family="monospace">200</text>
<line x1="90" y1="121" x2="870" y2="121" stroke="#ddd" stroke-width="1"/>
<text x="82" y="125" text-anchor="end" font-size="10" fill="#555" font-family="monospace">400</text>
<line x1="90" y1="80" x2="870" y2="80" stroke="#ddd" stroke-width="1"/>
<text x="82" y="84" text-anchor="end" font-size="10" fill="#555" font-family="monospace">600</text>
<line x1="90" y1="40" x2="870" y2="40" stroke="#ddd" stroke-width="1"/>
<text x="82" y="44" text-anchor="end" font-size="10" fill="#555" font-family="monospace">800</text>
<line x1="90" y1="40" x2="90" y2="490" stroke="#eee" stroke-width="1"/>
<text x="90" y="508" text-anchor="middle" font-size="10" fill="#555" font-family="monospace">0</text>
<line x1="201" y1="40" x2="201" y2="490" stroke="#eee" stroke-width="1"/>
<text x="201" y="508" text-anchor="middle" font-size="10" fill="#555" font-family="monospace">1</text>
<line x1="312" y1="40" x2="312" y2="490" stroke="#eee" stroke-width="1"/>
<text x="312" y="508" text-anchor="middle" font-size="10" fill="#555" font-family="monospace">2</text>
<line x1="424" y1="40" x2="424" y2="490" stroke="#eee" stroke-width="1"/>
<text x="424" y="508" text-anchor="middle" font-size="10" fill="#555" font-family="monospace">3</text>
<line x1="535" y1="40" x2="535" y2="490" stroke="#eee" stroke-width="1"/>
<text x="535" y="508" text-anchor="middle" font-size="10" fill="#555" font-family="monospace">4</text>
<line x1="647" y1="40" x2="647" y2="490" stroke="#eee" stroke-width="1"/>
<text x="647" y="508" text-anchor="middle" font-size="10" fill="#555" font-family="monospace">5</text>
<line x1="758" y1="40" x2="758" y2="490" stroke="#eee" stroke-width="1"/>
<text x="758" y="508" text-anchor="middle" font-size="10" fill="#555" font-family="monospace">6</text>
<line x1="870" y1="40" x2="870" y2="490" stroke="#eee" stroke-width="1"/>
<text x="870" y="508" text-anchor="middle" font-size="10" fill="#555" font-family="monospace">7</text>
<line x1="90" y1="203" x2="870" y2="203" stroke="#999" stroke-width="1.5"/>


  <!-- Fases -->
  <line x1="201" y1="40" x2="201" y2="490" stroke="#888" stroke-width="1.5" stroke-dasharray="6,3" opacity="0.7"/>
<text x="205" y="54" font-size="11" fill="#888" font-family="monospace">HOLD</text>
<line x1="312" y1="40" x2="312" y2="490" stroke="#e74c3c" stroke-width="1.5" stroke-dasharray="6,3" opacity="0.7"/>
<text x="316" y="54" font-size="11" fill="#e74c3c" font-family="monospace">BIT3</text>
<line x1="424" y1="40" x2="424" y2="490" stroke="#e67e22" stroke-width="1.5" stroke-dasharray="6,3" opacity="0.7"/>
<text x="428" y="54" font-size="11" fill="#e67e22" font-family="monospace">BIT2</text>
<line x1="535" y1="40" x2="535" y2="490" stroke="#27ae60" stroke-width="1.5" stroke-dasharray="6,3" opacity="0.7"/>
<text x="539" y="54" font-size="11" fill="#27ae60" font-family="monospace">BIT1</text>
<line x1="647" y1="40" x2="647" y2="490" stroke="#2980b9" stroke-width="1.5" stroke-dasharray="6,3" opacity="0.7"/>
<text x="651" y="54" font-size="11" fill="#2980b9" font-family="monospace">BIT0</text>
<line x1="758" y1="40" x2="758" y2="490" stroke="#8e44ad" stroke-width="1.5" stroke-dasharray="6,3" opacity="0.7"/>
<text x="762" y="54" font-size="11" fill="#8e44ad" font-family="monospace">DONE</text>


  <!-- Curva Pre-Layout -->
  <polyline points="90,203 90,203 90,203 90,203 90,203 90,203 90,203 91,203 92,203 95,203 97,203 99,203 101,203 103,203 106,203 108,203 110,203 112,203 115,203 117,203 119,203 121,203 124,203 126,203 128,203 130,203 132,203 135,203 137,203 139,203 141,203 144,203 146,203 148,203 150,203 153,203 155,203 157,203 159,203 161,203 164,203 166,203 168,203 170,203 173,203 175,203 177,203 179,203 181,203 184,203 186,203 188,203 190,203 193,203 195,203 197,203 199,203 201,203 201,204 201,204 201,204 201,204 202,217 202,271 202,330 202,330 202,330 202,330 203,330 203,330 204,330 206,330 209,330 211,330 213,330 215,330 218,330 220,330 222,330 224,330 226,330 229,330 231,330 233,330 235,330 238,330 240,330 242,330 244,330 247,330 249,330 251,330 253,330 255,330 258,330 260,330 262,330 264,330 267,330 269,330 271,330 273,330 276,330 278,330 280,330 282,330 284,330 287,330 289,330 291,330 293,330 296,330 298,330 300,330 302,330 304,330 307,330 309,330 311,330 312,330 312,312 313,275 313,211 313,146 314,146 314,146 314,146 314,146 314,146 315,146 317,146 319,146 322,146 324,146 326,146 328,146 331,146 333,146 335,146 337,146 339,146 342,146 344,146 346,146 348,146 351,146 353,146 355,146 357,146 359,146 362,146 364,146 366,146 368,146 371,146 373,146 375,146 377,146 380,146 382,146 384,146 386,146 388,146 391,146 393,146 395,146 397,146 400,146 402,146 404,146 406,146 409,146 411,146 413,146 415,146 417,146 420,146 422,146 424,146 424,141 424,131 424,110 425,82 425,54 425,54 425,54 425,54 426,54 427,54 429,54 431,54 434,54 436,54 438,54 440,54 443,54 445,54 447,54 449,54 451,54 454,54 456,54 458,54 460,54 463,54 465,54 467,54 469,54 471,54 474,54 476,54 478,54 480,54 483,54 485,54 487,54 489,54 492,54 494,54 496,54 498,54 500,54 503,54 505,54 507,54 509,54 512,54 514,54 516,54 518,54 521,54 523,54 525,54 527,54 529,54 532,54 533,54 535,54 535,58 535,66 536,82 536,100 536,100 536,100 537,100 537,100 537,100 539,100 541,100 543,100 545,100 547,100 550,100 552,100 554,100 556,100 559,100 561,100 563,100 565,100 567,100 570,100 572,100 574,100 576,100 579,100 581,100 583,100 585,100 588,100 590,100 592,100 594,100 596,100 599,100 601,100 603,100 605,100 608,100 610,100 612,100 614,100 616,100 619,100 621,100 623,100 625,100 628,100 630,100 632,100 634,100 637,100 639,100 641,100 643,100 645,100 647,100 647,99 647,95 647,89 648,77 648,77 648,77 648,77 649,77 650,77 652,77 654,77 656,77 658,77 661,77 663,77 665,77 667,77 669,77 672,77 674,77 676,77 678,77 681,77 683,77 685,77 687,77 689,77 692,77 694,77 696,77 698,77 701,77 703,77 705,77 707,77 710,77 712,77 714,77 716,77 718,77 721,77 723,77 725,77 727,77 730,77 732,77 734,77 736,77 739,77 741,77 743,77 745,77 747,77 750,77 752,77 754,77 756,77 758,77 758,79 758,84 759,92 759,100 759,100 759,100 759,100 760,100 760,100 761,100 763,100 765,100 767,100 769,100 772,100 774,100 776,100 778,100 781,100 783,100 785,100 787,100 789,100 792,100 794,100 796,100 798,100 801,100 803,100 805,100 807,100 810,100 812,100 814,100 816,100 818,100 821,100 823,100 825,100 827,100 830,100 832,100 834,100 836,100 839,100 841,100 843,100 845,100 847,100 850,100 852,100 854,100 856,100 859,100 861,100 863,100 865,100 867,100 870,100" fill="none" stroke="#2471a3" stroke-width="2.2" stroke-linejoin="round"/>

  <!-- Curva Pos-Layout -->
  <polyline points="90,203 90,203 90,203 90,203 90,203 90,203 90,203 91,203 92,203 95,203 97,203 99,203 101,203 103,203 106,203 108,203 110,203 112,203 115,203 117,203 119,203 121,203 124,203 126,203 128,203 130,203 132,203 135,203 137,203 139,203 141,203 144,203 146,203 148,203 150,203 153,203 155,203 157,203 159,203 161,203 164,203 166,203 168,203 170,203 173,203 175,203 177,203 179,203 181,203 184,203 186,203 188,203 190,203 193,203 195,203 197,203 199,203 201,203 201,204 201,204 201,204 201,204 202,217 202,271 202,330 202,330 202,330 202,330 203,330 203,330 204,330 206,330 209,330 211,330 213,330 215,330 218,330 220,330 222,330 224,330 226,330 229,330 231,330 233,330 235,330 238,330 240,330 242,330 244,330 247,330 249,330 251,330 253,330 255,330 258,330 260,330 262,330 264,330 267,330 269,330 271,330 273,330 276,330 278,330 280,330 282,330 284,330 287,330 289,330 291,330 293,330 296,330 298,330 300,330 302,330 304,330 307,330 309,330 311,330 312,330 312,311 313,275 313,211 313,146 314,146 314,146 314,146 314,146 314,146 315,146 317,146 319,146 322,146 324,146 326,146 328,146 331,146 333,146 335,146 337,146 339,146 342,146 344,146 346,146 348,146 351,146 353,146 355,146 357,146 359,146 362,146 364,146 366,146 368,146 371,146 373,146 375,146 377,146 380,146 382,146 384,146 386,146 388,146 391,146 393,146 395,146 397,146 400,146 402,146 404,146 406,146 409,146 411,146 413,146 415,146 417,146 420,146 422,146 424,146 424,141 424,131 424,110 425,83 425,55 425,55 425,55 425,55 426,55 427,55 429,55 431,55 434,55 436,55 438,55 440,55 443,55 445,55 447,55 449,55 451,55 454,55 456,55 458,55 460,55 463,55 465,55 467,55 469,55 472,55 474,55 476,55 478,55 480,55 483,55 485,55 487,55 489,55 492,55 494,55 496,55 498,55 500,55 503,55 505,55 507,55 509,55 512,55 514,55 516,55 518,55 521,55 523,55 525,55 527,55 529,55 532,55 533,55 535,55 535,59 535,66 536,82 536,101 536,101 536,101 537,101 537,101 537,101 539,101 541,101 543,101 545,101 547,101 550,101 552,101 554,101 556,101 559,101 561,101 563,101 565,101 567,101 570,101 572,101 574,101 576,101 579,101 581,101 583,101 585,101 588,101 590,101 592,101 594,101 596,101 599,101 601,101 603,101 605,101 608,101 610,101 612,101 614,101 617,101 619,101 621,101 623,101 625,101 628,101 630,101 632,101 634,101 637,101 639,101 641,101 643,101 645,101 647,101 647,99 647,96 647,90 648,78 648,78 648,78 648,78 649,78 650,78 652,78 654,78 656,78 658,78 660,78 663,78 665,78 667,78 669,78 672,78 674,78 676,78 678,78 680,78 683,78 685,78 687,78 689,78 692,78 694,78 696,78 698,78 701,78 703,78 705,78 707,78 709,78 712,78 714,78 716,78 718,78 721,78 723,78 725,78 727,78 730,78 732,78 734,78 736,78 738,78 741,78 743,78 745,78 747,78 750,78 752,78 754,78 756,78 758,78 758,80 758,84 759,92 759,101 759,101 759,101 759,101 760,101 760,101 761,101 763,101 765,101 767,101 769,101 772,101 774,101 776,101 778,101 781,101 783,101 785,101 787,101 789,101 792,101 794,101 796,101 798,101 801,101 803,101 805,101 807,101 810,101 812,101 814,101 816,101 818,101 821,101 823,101 825,101 827,101 830,101 832,101 834,101 836,101 838,101 841,101 843,101 845,101 847,101 850,101 852,101 854,101 856,101 859,101 861,101 863,101 865,101 867,101 870,101" fill="none" stroke="#e74c3c" stroke-width="2.0" stroke-dasharray="8,4" stroke-linejoin="round"/>

  <!-- Legenda -->
  <rect x="100" y="50" width="200" height="48" fill="white" stroke="#ccc" rx="4"/>
  <line x1="110" y1="66" x2="140" y2="66" stroke="#2471a3" stroke-width="2.2"/>
  <text x="146" y="70" font-size="11" fill="#222">Pre-Layout (sem parasitas)</text>
  <line x1="110" y1="84" x2="140" y2="84" stroke="#e74c3c" stroke-width="2.0" stroke-dasharray="8,4"/>
  <text x="146" y="88" font-size="11" fill="#222">Pos-Layout (+6.72fF, +3.36O)</text>

  <!-- Eixo Y label -->
  <text x="16" y="280" text-anchor="middle" font-size="12" fill="#333" transform="rotate(-90,16,280)">V(Vtop) [mV]</text>

  <!-- Eixo X label -->
  <text x="450" y="552" text-anchor="middle" font-size="12" fill="#333">Tempo [us]</text>
</svg>