<?xml version="1.0" encoding="UTF-8"?>
<svg xmlns="http://www.w3.org/2000/svg" width="900" height="480" style="background:#fff;">
  <text x="450" y="22" text-anchor="middle" font-size="14" font-weight="bold" fill="#222">
    Zoom: Fases de Decisao SAR | Comparativo com Nivel Teorico
  </text>
  <rect x="90" y="40" width="780" height="370" fill="#fafafa" stroke="#ccc"/>
  <line x1="90" y1="336" x2="870" y2="336" stroke="#eee" stroke-width="1"/>
<text x="82" y="340" text-anchor="end" font-size="10" fill="#555" font-family="monospace">0</text>
<line x1="90" y1="299" x2="870" y2="299" stroke="#eee" stroke-width="1"/>
<text x="82" y="303" text-anchor="end" font-size="10" fill="#555" font-family="monospace">100</text>
<line x1="90" y1="262" x2="870" y2="262" stroke="#eee" stroke-width="1"/>
<text x="82" y="266" text-anchor="end" font-size="10" fill="#555" font-family="monospace">200</text>
<line x1="90" y1="225" x2="870" y2="225" stroke="#eee" stroke-width="1"/>
<text x="82" y="229" text-anchor="end" font-size="10" fill="#555" font-family="monospace">300</text>
<line x1="90" y1="188" x2="870" y2="188" stroke="#eee" stroke-width="1"/>
<text x="82" y="192" text-anchor="end" font-size="10" fill="#555" font-family="monospace">400</text>
<line x1="90" y1="151" x2="870" y2="151" stroke="#eee" stroke-width="1"/>
<text x="82" y="155" text-anchor="end" font-size="10" fill="#555" font-family="monospace">500</text>
<line x1="90" y1="114" x2="870" y2="114" stroke="#eee" stroke-width="1"/>
<text x="82" y="118" text-anchor="end" font-size="10" fill="#555" font-family="monospace">600</text>
<line x1="90" y1="77" x2="870" y2="77" stroke="#eee" stroke-width="1"/>
<text x="82" y="81" text-anchor="end" font-size="10" fill="#555" font-family="monospace">700</text>
<line x1="90" y1="336" x2="870" y2="336" stroke="#aaa" stroke-width="1.5"/>

  <line x1="115" y1="40" x2="115" y2="410" stroke="#888" stroke-width="1.5" stroke-dasharray="6,3" opacity="0.5"/>
<text x="119" y="54" font-size="10" fill="#888">HOLD</text>
<line x1="240" y1="40" x2="240" y2="410" stroke="#e74c3c" stroke-width="1.5" stroke-dasharray="6,3" opacity="0.5"/>
<text x="244" y="54" font-size="10" fill="#e74c3c">BIT3</text>
<line x1="366" y1="40" x2="366" y2="410" stroke="#e67e22" stroke-width="1.5" stroke-dasharray="6,3" opacity="0.5"/>
<text x="370" y="54" font-size="10" fill="#e67e22">BIT2</text>
<line x1="492" y1="40" x2="492" y2="410" stroke="#27ae60" stroke-width="1.5" stroke-dasharray="6,3" opacity="0.5"/>
<text x="496" y="54" font-size="10" fill="#27ae60">BIT1</text>
<line x1="618" y1="40" x2="618" y2="410" stroke="#2980b9" stroke-width="1.5" stroke-dasharray="6,3" opacity="0.5"/>
<text x="622" y="54" font-size="10" fill="#2980b9">BIT0</text>
<line x1="744" y1="40" x2="744" y2="410" stroke="#8e44ad" stroke-width="1.5" stroke-dasharray="6,3" opacity="0.5"/>
<text x="748" y="54" font-size="10" fill="#8e44ad">DONE</text>

  <line x1="240" y1="232" x2="366" y2="232" stroke="#e74c3c" stroke-width="1.5" stroke-dasharray="5,3" opacity="0.6"/>
<text x="369" y="228" font-size="10" fill="#e74c3c">BIT3: +281mV</text>
<line x1="366" y1="148" x2="492" y2="148" stroke="#e67e22" stroke-width="1.5" stroke-dasharray="5,3" opacity="0.6"/>
<text x="495" y="144" font-size="10" fill="#e67e22">BIT2: +506mV</text>
<line x1="492" y1="106" x2="618" y2="106" stroke="#27ae60" stroke-width="1.5" stroke-dasharray="5,3" opacity="0.6"/>
<text x="621" y="102" font-size="10" fill="#27ae60">BIT1: +619mV</text>
<line x1="618" y1="148" x2="744" y2="148" stroke="#2980b9" stroke-width="1.5" stroke-dasharray="5,3" opacity="0.6"/>
<text x="747" y="144" font-size="10" fill="#2980b9">BIT0: +506mV</text>

  <polyline points="90,336 93,336 95,336 98,336 100,336 103,336 105,336 108,336 110,336 112,336 115,336 115,336 115,336 115,336 115,336 115,361 116,459 116,565 116,565 116,565 116,565 117,565 117,565 118,565 121,565 123,565 126,565 128,565 131,565 133,565 136,565 138,565 141,565 144,565 146,565 149,565 151,565 154,565 156,565 159,565 161,565 164,565 166,565 169,565 171,565 174,565 176,565 179,565 181,565 184,565 186,565 189,565 191,565 194,565 196,565 199,565 201,565 204,565 206,565 209,565 211,565 214,565 216,565 219,565 222,565 224,565 227,565 229,565 232,565 234,565 237,565 239,565 240,565 241,532 241,465 241,349 242,232 242,232 242,232 242,232 242,232 243,232 244,232 246,232 248,232 251,232 253,232 256,232 258,232 261,232 263,232 266,232 269,232 271,232 274,232 276,232 279,232 281,232 284,232 286,232 289,232 291,232 294,232 296,232 299,232 301,232 304,232 306,232 309,232 311,232 314,232 316,232 319,232 321,232 324,232 326,232 329,232 331,232 334,232 336,232 339,232 341,232 344,232 347,232 349,232 352,232 354,232 357,232 359,232 362,232 364,232 366,232 366,223 366,204 367,167 367,116 368,66 368,66 368,66 368,66 369,66 370,66 372,66 375,66 377,66 380,66 382,66 385,66 387,66 390,66 392,66 395,66 397,66 400,66 403,66 405,66 408,66 410,66 413,66 415,66 418,66 420,66 423,66 425,66 428,66 430,66 433,66 435,66 438,66 440,66 443,66 445,66 448,66 450,66 453,66 455,66 458,66 460,66 463,66 465,66 468,66 470,66 473,66 475,66 478,66 481,66 483,66 486,66 488,66 490,66 492,66 492,73 492,87 493,116 493,149 493,149 493,149 494,149 494,149 495,149 496,149 498,149 501,149 503,149 506,149 508,149 511,149 513,149 516,149 518,149 521,149 523,149 526,149 528,149 531,149 534,149 536,149 539,149 541,149 544,149 546,149 549,149 551,149 554,149 556,149 559,149 561,149 564,149 566,149 569,149 571,149 574,149 576,149 579,149 581,149 584,149 586,149 589,149 591,149 594,149 596,149 599,149 601,149 604,149 606,149 609,149 612,149 614,149 616,149 618,149 618,146 618,141 618,129 619,107 619,107 619,107 620,107 620,107 621,107 623,107 626,107 629,107 631,107 634,107 636,107 639,107 641,107 644,107 646,107 649,107 651,107 654,107 656,107 659,107 661,107 664,107 666,107 669,107 671,107 674,107 676,107 679,107 681,107 684,107 686,107 689,107 691,107 694,107 696,107 699,107 701,107 704,107 707,107 709,107 712,107 714,107 717,107 719,107 722,107 724,107 727,107 729,107 732,107 734,107 737,107 739,107 741,107 744,107 744,112 744,120 745,135 745,149 745,149 745,149 745,149 745,149 746,149 747,149 749,149 751,149 754,149 757,149 759,149 762,149 764,149 767,149 769,149 772,149 774,149 777,149 779,149 782,149 784,149 787,149 789,149 792,149 794,149 797,149 799,149 802,149 804,149 807,149 809,149 812,149 814,149 817,149 819,149 822,149 824,149 827,149 829,149 832,149 835,149 837,149 840,149 842,149 845,149 847,149 850,149 852,149 855,149 857,149 860,149 862,149 865,149 867,149 870,149" fill="none" stroke="#2471a3" stroke-width="2.2" stroke-linejoin="round"/>
  <polyline points="90,336 93,336 95,336 98,336 100,336 103,336 105,336 108,336 110,336 112,336 115,336 115,336 115,336 115,336 115,336 115,360 116,458 116,564 116,564 116,564 116,564 117,564 117,564 118,564 121,564 123,564 126,564 128,564 131,564 133,564 136,564 138,564 141,564 144,564 146,564 149,564 151,564 154,564 156,564 159,564 161,564 164,564 166,564 169,564 171,564 174,564 176,564 179,564 181,564 184,564 186,564 189,564 191,564 194,564 196,564 199,564 201,564 204,564 206,564 209,564 211,564 214,564 216,564 219,564 222,564 224,564 227,564 229,564 232,564 234,564 237,564 239,564 240,564 241,531 241,465 241,349 242,233 242,233 242,233 242,233 242,233 243,233 244,233 246,233 248,233 251,233 253,233 256,233 258,233 261,233 263,233 266,233 269,233 271,233 274,233 276,233 279,233 281,233 284,233 286,233 289,233 291,233 294,233 296,233 299,233 301,233 304,233 306,233 309,233 311,233 314,233 316,233 319,233 321,233 324,233 326,233 329,233 331,233 334,233 336,233 339,233 341,233 344,233 347,233 349,233 352,233 354,233 357,233 359,233 362,233 364,233 366,233 366,223 366,205 367,168 367,117 368,67 368,67 368,67 368,67 369,67 370,67 372,67 375,67 377,67 380,67 382,67 385,67 387,67 390,67 392,67 395,67 398,67 400,67 403,67 405,67 408,67 410,67 413,67 415,67 418,67 420,67 423,67 425,67 428,67 430,67 433,67 435,67 438,67 440,67 443,67 445,67 448,67 450,67 453,67 455,67 458,67 460,67 463,67 465,67 468,67 470,67 473,67 476,67 478,67 481,67 483,67 486,67 488,67 490,67 492,67 492,74 492,88 493,116 493,150 493,150 493,150 494,150 494,150 495,150 496,150 498,150 501,150 503,150 506,150 508,150 511,150 513,150 516,150 518,150 521,150 523,150 526,150 529,150 531,150 534,150 536,150 539,150 541,150 544,150 546,150 549,150 551,150 554,150 556,150 559,150 561,150 564,150 566,150 569,150 571,150 574,150 576,150 579,150 581,150 584,150 586,150 589,150 591,150 594,150 596,150 599,150 601,150 604,150 607,150 609,150 612,150 614,150 616,150 618,150 618,147 618,142 618,130 619,108 619,108 619,108 620,108 620,108 621,108 623,108 626,108 628,108 631,108 633,108 636,108 638,108 641,108 644,108 646,108 649,108 651,108 654,108 656,108 659,108 661,108 664,108 666,108 669,108 671,108 674,108 676,108 679,108 681,108 684,108 686,108 689,108 691,108 694,108 696,108 699,108 701,108 704,108 706,108 709,108 711,108 714,108 716,108 719,108 722,108 724,108 727,108 729,108 732,108 734,108 737,108 739,108 741,108 744,108 744,113 744,121 745,135 745,150 745,150 745,150 745,150 745,150 746,150 747,150 749,150 751,150 754,150 756,150 759,150 762,150 764,150 767,150 769,150 772,150 774,150 777,150 779,150 782,150 784,150 787,150 789,150 792,150 794,150 797,150 799,150 802,150 804,150 807,150 809,150 812,150 814,150 817,150 819,150 822,150 824,150 827,150 829,150 832,150 834,150 837,150 840,150 842,150 845,150 847,150 850,150 852,150 855,150 857,150 860,150 862,150 865,150 867,150 870,150" fill="none" stroke="#e74c3c" stroke-width="2.0" stroke-dasharray="8,4" stroke-linejoin="round"/>
  <!-- Legenda -->
  <rect x="100" y="50" width="200" height="66" fill="white" stroke="#ccc" rx="4"/>
  <line x1="110" y1="66" x2="140" y2="66" stroke="#2471a3" stroke-width="2.2"/>
  <text x="146" y="70" font-size="11" fill="#222">Pre-Layout</text>
  <line x1="110" y1="84" x2="140" y2="84" stroke="#e74c3c" stroke-width="2.0" stroke-dasharray="8,4"/>
  <text x="146" y="88" font-size="11" fill="#222">Pos-Layout</text>
  <line x1="110" y1="102" x2="140" y2="102" stroke="#888" stroke-width="1.5" stroke-dasharray="5,3"/>
  <text x="146" y="106" font-size="11" fill="#888">Nivel Teorico</text>
  <text x="16" y="240" text-anchor="middle" font-size="12" fill="#333" transform="rotate(-90,16,240)">V(Vtop) [mV]</text>
  <text x="450" y="472" text-anchor="middle" font-size="12" fill="#333">Tempo [us]</text>
</svg>